<svg width="24" height="24" viewBox="0 0 24 24" fill="none" xmlns="http://www.w3.org/2000/svg">
<path fill-rule="evenodd" clip-rule="evenodd" d="M12.8656 4.24277C13.0407 3.51409 13.4045 2 14.1875 2C15.125 2 17 2.3125 17 5.18172C17 6.22548 16.5974 6.98054 16.2281 7.67317C16.0112 8.08003 15.8057 8.46535 15.7001 8.875H19.6737C20.9782 8.875 21.9939 9.95883 22 11.1445C22.0033 11.8452 21.7052 12.5995 21.2407 13.0662L21.2364 13.0705C21.6205 13.9821 21.5581 15.2595 20.8728 16.1748C21.2119 17.1862 20.87 18.4288 20.2329 19.095C20.4007 19.7824 20.3205 20.3674 19.9927 20.8384C19.1954 21.9839 17.2194 22 15.5484 22H15.4373C13.5511 21.9993 12.0074 21.3126 10.767 20.7607C10.1437 20.4834 9.32871 20.1401 8.71031 20.1288C8.45484 20.1241 8.25004 19.9156 8.25004 19.6601V11.3097C8.25003 11.1847 8.30008 11.0648 8.38902 10.9769C9.20682 10.1688 9.77827 9.3356 10.3226 8.54202C10.8082 7.83401 11.2721 7.15751 11.8702 6.55848C12.4484 5.97912 12.6587 5.10399 12.8621 4.25768L12.8621 4.25762L12.8656 4.24277ZM2 19.8125V10.4375C2 9.91973 2.41973 9.5 2.9375 9.5H6.0625C6.58027 9.5 7 9.91973 7 10.4375V19.8125C7 20.3303 6.58027 20.75 6.0625 20.75H2.9375C2.41973 20.75 2 20.3303 2 19.8125ZM3.5625 12C3.5625 12.5178 3.98223 12.9375 4.5 12.9375C5.01777 12.9375 5.4375 12.5178 5.4375 12C5.4375 11.4822 5.01777 11.0625 4.5 11.0625C3.98223 11.0625 3.5625 11.4822 3.5625 12Z" fill="#00897B"/>
</svg>
