<svg width="23" height="19" viewBox="0 0 23 19" fill="none" xmlns="http://www.w3.org/2000/svg">
<path d="M22.3356 3.82875L17.9959 1.65938C17.4569 0.67875 16.1134 0 14.5 0C12.3972 0 10.75 1.15313 10.75 2.625C10.7502 2.83306 10.7838 3.03974 10.8494 3.23719L9.01937 4.15219C8.38116 3.88041 7.69365 3.74348 7 3.75C4.89719 3.75 3.25 4.90312 3.25 6.375C3.25021 6.58306 3.28376 6.78974 3.34938 6.98719L0.664375 8.32875C0.539771 8.3911 0.434999 8.48693 0.361808 8.6055C0.288617 8.72406 0.2499 8.86067 0.25 9V15C0.2499 15.1393 0.288617 15.2759 0.361808 15.3945C0.434999 15.5131 0.539771 15.6089 0.664375 15.6713L6.66437 18.6712C6.76857 18.7234 6.88348 18.7505 7 18.7505C7.11652 18.7505 7.23143 18.7234 7.33563 18.6712L22.3356 11.1713C22.4602 11.1089 22.565 11.0131 22.6382 10.8945C22.7114 10.7759 22.7501 10.6393 22.75 10.5V4.5C22.7501 4.36067 22.7114 4.22406 22.6382 4.10549C22.565 3.98693 22.4602 3.8911 22.3356 3.82875ZM7 11.1619L2.67719 9L4.28125 8.19844C4.96 8.69438 5.92 9 7 9C9.10281 9 10.75 7.84688 10.75 6.375C10.7464 5.93929 10.6035 5.51615 10.3422 5.1675L11.7812 4.44844C12.46 4.94437 13.42 5.25 14.5 5.25C16.2231 5.25 17.6397 4.47563 18.0953 3.38625L20.3228 4.5L7 11.1619ZM14.5 1.5C15.7881 1.5 16.75 2.09438 16.75 2.625C16.75 3.15562 15.7881 3.75 14.5 3.75C13.2119 3.75 12.25 3.15562 12.25 2.625C12.25 2.09438 13.2119 1.5 14.5 1.5ZM7 5.25C8.28813 5.25 9.25 5.84438 9.25 6.375C9.25 6.90562 8.28813 7.5 7 7.5C6.09344 7.5 5.34906 7.20563 4.98719 6.84375C4.96318 6.81274 4.93685 6.7836 4.90844 6.75656C4.8136 6.6512 4.75769 6.51655 4.75 6.375C4.75 5.84438 5.71187 5.25 7 5.25ZM1.75 10.2131L6.25 12.4631V16.7869L1.75 14.5369V10.2131ZM7.75 16.7869V12.4631L21.25 5.71313V10.0369L7.75 16.7869Z" fill="#101828"/>
</svg>
