<svg width="24" height="24" viewBox="0 0 24 24" fill="none" xmlns="http://www.w3.org/2000/svg">
<g clip-path="url(#clip0_4_2147)">
<path d="M10.2716 19.949C10.2716 21.082 9.35363 22 8.22163 22C7.13863 22 6.25363 21.164 6.17563 20.102L6.16963 19.949H10.2716ZM18.1996 13L18.1986 16H21.1996V18H18.1986L18.1996 21H16.1996L16.1986 18H13.1996V16H16.1986L16.1996 13H18.1996ZM8.22062 2C9.02462 2 9.68263 2.613 9.75263 3.398L9.75963 3.538V4.236C12.6136 4.913 14.2776 7.416 14.3696 10.449L14.3746 10.718L14.3736 10.8C12.3626 11.905 10.9996 14.043 10.9996 16.5C10.9996 17.357 11.1656 18.174 11.4666 18.923H0.015625V17.897L2.06662 15.847V10.718C2.06662 7.654 3.64963 5.084 6.43363 4.3L6.68263 4.236V3.538C6.68263 2.688 7.36963 2 8.21963 2H8.22062Z" fill="white"/>
</g>
<defs>
<clipPath id="clip0_4_2147">
<rect width="24" height="24" fill="white"/>
</clipPath>
</defs>
</svg>
