<svg width="30" height="30" viewBox="0 0 30 30" fill="none" xmlns="http://www.w3.org/2000/svg">
<rect width="30" height="30" fill="white" fill-opacity="0.01"/>
<path fill-rule="evenodd" clip-rule="evenodd" d="M15.5117 26.5234C15.8242 26.5234 16.0918 26.4102 16.3145 26.1836C16.5371 25.957 16.7266 25.6289 16.8828 25.1992L24.3125 5.78125C24.375 5.60938 24.4238 5.44727 24.459 5.29492C24.4941 5.14258 24.5117 5.00391 24.5117 4.87891C24.5117 4.59766 24.4336 4.38086 24.2773 4.22852C24.1211 4.07617 23.9062 4 23.6328 4C23.5078 4 23.3691 4.01758 23.2168 4.05273C23.0645 4.08789 22.9023 4.13672 22.7305 4.19922L3.26562 11.6406C2.875 11.7969 2.56641 11.9844 2.33984 12.2031C2.11328 12.4219 2 12.6875 2 13C2 13.3672 2.125 13.6426 2.375 13.8262C2.625 14.0098 2.98047 14.168 3.44141 14.3008L10.2852 16.3984C10.5273 16.4688 10.7422 16.4883 10.9297 16.457C11.1172 16.4258 11.2969 16.3281 11.4688 16.1641L23.293 4.91406C23.3477 4.85938 23.4062 4.83008 23.4688 4.82617C23.5312 4.82227 23.582 4.83984 23.6211 4.87891C23.6758 4.92578 23.6992 4.98047 23.6914 5.04297C23.6836 5.10547 23.6562 5.16406 23.6094 5.21875L12.3594 17.0547C12.2031 17.2266 12.1074 17.4043 12.0723 17.5879C12.0371 17.7715 12.0547 17.9883 12.125 18.2383L14.1992 25.0352C14.3398 25.5039 14.502 25.8691 14.6855 26.1309C14.8691 26.3926 15.1445 26.5234 15.5117 26.5234Z" fill="white"/>
<path fill-rule="evenodd" clip-rule="evenodd" d="M25 19H24V22H21V23H24V26H25V23H28V22H25V19Z" fill="white"/>
</svg>
