<svg width="24" height="24" viewBox="0 0 24 24" fill="none" xmlns="http://www.w3.org/2000/svg">
<path fill-rule="evenodd" clip-rule="evenodd" d="M12.0005 2C11.611 1.99995 11.2328 2.05258 10.8708 2.15076L10.8739 2.15153C8.89474 2.68813 7.38751 4.58159 7.35358 6.73171C7.34611 7.34153 7.33992 7.95134 7.33504 8.56115L7.33468 8.56115C6.91012 8.56762 6.56242 8.91435 6.55927 9.33434L6.1742 9.3396C5.32408 9.35305 4.62728 10.0399 4.62352 10.8694C4.61012 13.9966 4.65226 17.1238 4.74984 20.251C4.77678 21.0804 5.47619 21.8015 6.30614 21.8474C10.1023 22.0508 13.8984 22.0508 17.6946 21.8474C18.5245 21.8016 19.2239 21.0804 19.2509 20.251C19.3485 17.1238 19.3906 13.9966 19.3772 10.8694C19.3735 10.0398 18.6767 9.3531 17.8266 9.3396L17.4416 9.33434C17.4384 8.91447 17.091 8.56777 16.6665 8.56116C16.6617 7.95135 16.6555 7.34153 16.648 6.73171C16.6079 4.18848 14.5065 2.00431 12.0008 2H12.0006H12.0005ZM14.359 8.5358C12.7868 8.5242 11.2145 8.5242 9.64231 8.5358C9.64478 7.9215 9.64791 7.30719 9.65168 6.69288C9.66156 5.39339 10.7175 4.31446 12.0008 4.31405C13.2659 4.3145 14.31 5.36297 14.3489 6.63756C14.3492 6.65598 14.3495 6.67442 14.3496 6.69288C14.3534 7.30719 14.3565 7.9215 14.359 8.5358ZM13.1547 14.9055C13.156 14.2427 12.5985 13.711 11.9264 13.7525C11.3476 13.7884 10.8782 14.2608 10.8472 14.8397C10.8274 15.2082 10.9803 15.5425 11.2314 15.7684C11.2321 16.2522 11.2329 16.7361 11.2339 17.2199C11.2343 17.4328 11.4061 17.6062 11.6174 17.6066C11.8725 17.6071 12.1276 17.6071 12.3828 17.6066C12.5941 17.6062 12.7658 17.4329 12.7663 17.2199C12.7672 16.7361 12.768 16.2522 12.7688 15.7684C13.0049 15.5559 13.1541 15.2479 13.1547 14.9055Z" fill="#666666"/>
</svg>
