<svg width="25" height="32" viewBox="0 0 25 32" fill="none" xmlns="http://www.w3.org/2000/svg">
<path fill-rule="evenodd" clip-rule="evenodd" d="M21.7297 30.6414C23.2541 30.6414 24.4882 29.4132 24.4882 27.896V7.12507H18.9349C18.5356 7.12507 18.2452 6.79996 18.2452 6.43873V0.153259H3.58159C2.09344 0.153259 0.859375 1.34533 0.859375 2.86251V27.9321C0.859375 29.4132 2.05715 30.6414 3.58159 30.6414H21.7297ZM19.6245 1.23696V5.75238H23.6534L19.6245 1.23696Z" fill="#EF6060"/>
<path fill-rule="evenodd" clip-rule="evenodd" d="M5.27924 21.6131V18.9254H6.66374C7.57271 18.9254 8.28426 18.7097 8.79841 18.2783C9.31255 17.847 9.56963 17.2576 9.56963 16.5101C9.56963 16.0176 9.45206 15.5784 9.21692 15.1924C8.98178 14.8065 8.64574 14.5087 8.20881 14.2992C7.77187 14.0896 7.26562 13.9848 6.69006 13.9848H3.69995V21.6131H5.27924ZM6.69006 17.6523H5.27924V15.2579H6.72691C7.11647 15.2649 7.4218 15.3837 7.6429 15.6142C7.864 15.8447 7.97455 16.1469 7.97455 16.5206C7.97455 16.8838 7.86488 17.1633 7.64553 17.3589C7.42619 17.5545 7.1077 17.6523 6.69006 17.6523ZM14.8339 21.1521C14.3005 21.4559 13.6986 21.6096 13.0283 21.6131H10.6541V13.9848H13.0125C13.6863 13.9848 14.2891 14.1359 14.8207 14.438C15.3524 14.7401 15.7674 15.1697 16.0658 15.7268C16.3641 16.2839 16.5132 16.917 16.5132 17.6261V17.9771C16.5132 18.6861 16.3667 19.3166 16.0736 19.8684C15.7806 20.4203 15.3674 20.8482 14.8339 21.1521ZM12.9967 20.3505H12.2334V15.2579H13.0125C13.6337 15.2579 14.1057 15.4579 14.4286 15.8578C14.7514 16.2578 14.9129 16.8454 14.9129 17.6208V18.0242C14.9059 18.7717 14.7392 19.3463 14.4128 19.7479C14.0864 20.1496 13.6143 20.3505 12.9967 20.3505ZM19.2401 18.4958V21.6131H17.6608V13.9848H22.6514V15.2579H19.2401V17.2279H22.2723V18.4958H19.2401Z" fill="white"/>
</svg>
