<svg width="13" height="10" viewBox="0 0 13 10" fill="none" xmlns="http://www.w3.org/2000/svg">
<path fill-rule="evenodd" clip-rule="evenodd" d="M5.12869 8.14021L11.319 1.94988L10.7476 1.37848L4.55729 7.56881L1.70029 4.71181L1.1289 5.28321L4.66443 8.81875L5.23583 8.24735L5.12869 8.14021Z" fill="white"/>
<path d="M11.319 1.94988L11.6726 2.30343L12.0261 1.94988L11.6726 1.59633L11.319 1.94988ZM5.12869 8.14021L4.77514 7.78666L4.42159 8.14021L4.77514 8.49376L5.12869 8.14021ZM10.7476 1.37848L11.1012 1.02493L10.7476 0.671375L10.3941 1.02493L10.7476 1.37848ZM4.55729 7.56881L4.20374 7.92236L4.55729 8.27592L4.91085 7.92236L4.55729 7.56881ZM1.70029 4.71181L2.05385 4.35826L1.70029 4.00471L1.34674 4.35826L1.70029 4.71181ZM1.1289 5.28321L0.775342 4.92966L0.421789 5.28321L0.775342 5.63677L1.1289 5.28321ZM4.66443 8.81875L4.31088 9.1723L4.66443 9.52585L5.01798 9.1723L4.66443 8.81875ZM5.23583 8.24735L5.58938 8.6009L5.94294 8.24735L5.58938 7.89379L5.23583 8.24735ZM10.9655 1.59633L4.77514 7.78666L5.48225 8.49376L11.6726 2.30343L10.9655 1.59633ZM10.3941 1.73203L10.9655 2.30343L11.6726 1.59633L11.1012 1.02493L10.3941 1.73203ZM4.91085 7.92236L11.1012 1.73203L10.3941 1.02493L4.20374 7.21526L4.91085 7.92236ZM1.34674 5.06537L4.20374 7.92236L4.91085 7.21526L2.05385 4.35826L1.34674 5.06537ZM1.48245 5.63677L2.05385 5.06537L1.34674 4.35826L0.775342 4.92966L1.48245 5.63677ZM5.01798 8.46519L1.48245 4.92966L0.775342 5.63677L4.31088 9.1723L5.01798 8.46519ZM4.88228 7.89379L4.31088 8.46519L5.01798 9.1723L5.58938 8.6009L4.88228 7.89379ZM4.77514 8.49376L4.88228 8.6009L5.58938 7.89379L5.48225 7.78666L4.77514 8.49376Z" fill="white"/>
</svg>
